<svg width="800" height="600" xmlns="http://www.w3.org/2000/svg">
 <g>
  <title>Layer 1</title>
  <path opacity="0.4" id="svg_7" d="m-26.28662,307.76043c13.04348,1.73913 84.34782,2.6087 107.82609,10.43478c23.47826,7.82609 42.6087,32.17391 60.86956,31.30435c18.26087,-0.86957 56.52174,-12.17391 72.17391,-12.17391c15.65217,0 41.73913,13.91304 60.86956,12.17391c19.13043,-1.73913 83.47826,-34.78261 106.95652,-42.6087c23.47826,-7.82609 78.26087,-6.95652 100,-11.30435c21.73913,-4.34783 72.17391,-19.13043 95.65217,-22.6087c23.47826,-3.47826 77.3913,-26.08696 118.26087,-17.3913c40.86956,8.69565 96.52174,37.3913 120.86956,40c24.34783,2.6087 57.3913,250.43478 53.91304,279.13043c-3.47826,28.69565 -2.6087,143.65216 -142.60869,139.30433c-140,-4.34783 -761.73912,37.3913 -799.99999,-31.30435c-38.26087,-68.69565 32.17391,-376.69563 45.21739,-374.9565z" stroke-width="0" stroke="#000" fill="#00000"/>
  <path opacity="0.6" stroke-width="0" id="svg_5" d="m-23.50577,523.19046c32.85714,-10 95,-26.42857 134.28571,-27.85714c39.28571,-1.42857 104.28571,5 110,2.14286c5.71429,-2.85714 19.28571,-74.28571 35,-91.42857c15.71429,-17.14286 29.28571,-30 37.14286,-30c7.85714,0 17.85714,29.28571 25,33.57143c7.14286,4.28571 17.85714,17.14286 25.71429,17.14286c7.85714,0 10,-20 13.57143,-17.85714c3.57143,2.14286 4.28571,6.42857 10.71429,7.85714c6.42857,1.42857 18.57143,-17.14286 27.14286,-17.14286c8.57143,0 22.14286,-53.57143 44.28571,-87.14286c22.14286,-33.57143 46.42857,-47.14286 55.71428,-47.14286c9.28571,0 38.57143,40.71429 52.14286,55.71428c13.57143,15 37.14286,34.28571 60,40.71429c22.85714,6.42857 106.63954,-1.05878 171.42857,48.57143c64.78903,49.63021 57.06345,74.0218 60.63488,84.0218c3.57143,10 11.50798,183.83534 6.50798,186.69248c-5,2.85714 -854.2857,8.57143 -859.99999,3.57143c-5.71429,-5 -42.14286,-151.42857 -9.28571,-161.42857z" stroke="#000" fill="#000000"/>
  <path opacity="0.8" stroke="#000" stroke-width="0" id="svg_6" d="m-8.34896,528.90227c47.8341,28.27189 144.21659,-10.78341 181.63594,-8.84793c37.41935,1.93548 102.94931,-15.43779 122.94931,-25.76037c20,-10.32258 59.21659,-74.00922 83.08756,-72.71889c23.87097,1.29032 38.66874,45.90346 69.67742,51.75115c31.00867,5.84769 95.87557,-31.03687 149.7235,-13.5023c53.84793,17.53456 92.99539,84.79263 115.57604,100.2765c22.58064,15.48387 122.8387,76.38711 129.29032,98.96776c6.45161,22.58064 -220,69.67742 -264.51613,69.03226c-44.51613,-0.64516 -421.29032,-21.93548 -444.51612,-20.64516c-23.22581,1.29032 -214.96775,102.58064 -178.83871,-50.32258l35.93089,-128.23043z" fill="#000000"/>
 </g>

</svg>